<svg xmlns="http://www.w3.org/2000/svg" viewBox="0 0 121.84 115.73"><defs><style>.cls-1{fill:#fff;}.cls-2{fill:#4d4d4f;}.cls-3{fill:#d9dadc;}.cls-4{fill:#908f94;}.cls-5{fill:#d24027;}.cls-6{fill:#e75f2e;}.cls-7{fill:#f15a22;}</style></defs><title>zucco-logo-outline-boldsvg</title><g id="Layer_2" data-name="Layer 2"><g id="Layer_1-2" data-name="Layer 1"><g id="Bold_outline_fox" data-name="Bold outline fox"><path class="cls-1" d="M50.39,115.73,38.12,100.81l-.73-.44c-2.87-1.74-8.6-5.41-23.57-15.12L0,76.29l25.5-5.94-9.15-6.43a11.39,11.39,0,1,1,15-17l1.49,1.67H48.7V28L23.35,20.24,21.48,21.3A11.39,11.39,0,1,1,26.32,6.84l.92,2.11,22.65,6.89h3.43L62,15.78H76.77L121.84,2.07,104.61,49.93,118.27,82l-4.94,3.2c-15,9.7-20.69,13.37-23.57,15.11l-.73.44L76.76,115.73Z"/><path class="cls-1" d="M29.24,34.67l-2,1.13A11.39,11.39,0,1,1,32,21.3l.9,2,10,3.37V39.25Z"/><path class="cls-1" d="M27.19,52a11.39,11.39,0,1,1,8.48-19l1.49,1.67H42V46.55H37.16l-1.49,1.67A11.38,11.38,0,0,1,27.19,52Z"/><path class="cls-1" d="M18.71,80.34a11.39,11.39,0,1,1,7.74-19.73l1.61,1.5,16.06-1.3v12L29.16,74l-1.35,1.8A11.3,11.3,0,0,1,18.71,80.34Z"/><polygon class="cls-1" points="40.54 50.42 40.54 46.55 36.69 46.55 36.69 34.61 52.48 34.61 52.48 38.48 54.01 38.48 54.01 50.42 40.54 50.42"/><rect class="cls-1" x="37.57" y="25.89" width="16.44" height="11.94"/><polygon class="cls-1" points="35.64 70.31 35.64 56.91 51.66 56.91 51.66 68.85 47.58 68.85 47.58 70.31 35.64 70.31"/><g id="_Group_" data-name="&lt;Group&gt;"><g id="_Group_2" data-name="&lt;Group&gt;"><rect id="_Path_" data-name="&lt;Path&gt;" class="cls-2" x="27.66" y="53.64" width="30.78" height="1.94"/></g><g id="_Group_3" data-name="&lt;Group&gt;"><path id="_Compound_Path_" data-name="&lt;Compound Path&gt;" class="cls-2" d="M41.58,96.91c-2-1.11-7.53-4.63-24.85-15.86l-3.95-2.56,42.58-9.91,6.83-47.8H77.7l36.24-11L99.43,50.08l12.79,30.05-1.41.91C93.49,92.28,88,95.8,86,96.91L74.59,110.73H52.94Zm42.07-3.49h.44c2.33-1.38,14.37-9.13,23.13-14.81L95.13,50.2l12.35-34.3L78.3,24.78H65.66L59.21,69.9l-.61,2L22.86,80.26c8.39,5.43,18.47,11.91,20.59,13.16h.44l10.95,13.31H72.7Z"/></g><g id="_Group_4" data-name="&lt;Group&gt;"><polygon class="cls-3" points="106.26 18.37 91.31 36.96 95.91 47.12 97.28 50.14 97.28 43.31 97.28 38.08 103.11 27.12 110.71 12.83 106.26 18.37"/><polygon class="cls-4" points="103.11 27.12 97.28 38.08 97.28 43.31 97.28 50.14 110.71 12.83 103.11 27.12"/><path class="cls-4" d="M99.79,83l-19.05,7L76.22,102l-2.57,6.77L84.59,95.42c.37,0,25.12-16,25.12-16Z"/><polygon id="_Path_2" data-name="&lt;Path&gt;" class="cls-5" points="57.25 69.55 57.24 69.57 57.24 69.54 57.25 69.55"/><path class="cls-4" d="M51.32,102,46.8,90.07,27.75,83l-9.93-3.66s24.75,16,25.12,16l10.95,13.31Z"/><polygon class="cls-2" points="63.77 87.21 56.83 89.87 56.83 94.67 63.77 99.9 70.7 94.67 70.7 89.87 63.77 87.21"/><polygon class="cls-3" points="105.9 76.31 92.68 65.69 78 75.39 76.14 88.45 70.7 89.87 70.7 94.67 63.77 99.9 56.83 94.67 56.83 89.87 51.4 88.45 49.53 75.39 45.73 72.88 38.4 74.58 20.95 78.64 17.82 79.37 27.75 83.04 46.8 90.07 51.32 101.96 53.89 108.73 63.77 108.73 73.65 108.73 76.22 101.96 80.74 90.07 99.79 83.04 109.72 79.37 105.9 76.31"/><polygon class="cls-6" points="95.91 47.12 91.31 36.96 106.26 18.37 110.71 12.83 78 22.78 63.92 22.78 63.59 25.09 57.24 69.54 57.25 69.55 57.24 69.57 57.03 70.25 45.73 72.88 49.53 75.39 51.4 88.45 56.83 89.87 63.77 87.21 70.7 89.87 76.14 88.45 78 75.39 92.68 65.69 105.9 76.31 109.72 79.37 97.28 50.14 95.91 47.12"/></g><g id="_Group_5" data-name="&lt;Group&gt;"><polygon id="_Path_3" data-name="&lt;Path&gt;" class="cls-2" points="49.05 22.77 63.04 22.77 63.04 20.84 49.34 20.84 20.84 12.17 20.28 14.02 49.05 22.77"/></g><g id="_Group_6" data-name="&lt;Group&gt;"><path id="_Compound_Path_2" data-name="&lt;Compound Path&gt;" class="cls-2" d="M9.68,11.39a6.39,6.39,0,1,1,6.39,6.39A6.39,6.39,0,0,1,9.68,11.39Z"/></g><g id="_Group_7" data-name="&lt;Group&gt;"><path id="_Compound_Path_3" data-name="&lt;Compound Path&gt;" class="cls-2" d="M15.38,25.93a6.39,6.39,0,1,1,6.39,6.39A6.39,6.39,0,0,1,15.38,25.93Z"/></g><g id="_Group_8" data-name="&lt;Group&gt;"><path id="_Compound_Path_4" data-name="&lt;Compound Path&gt;" class="cls-2" d="M21,40.58A6.39,6.39,0,1,1,27.38,47,6.39,6.39,0,0,1,21,40.58Z"/></g><g id="_Group_9" data-name="&lt;Group&gt;"><path id="_Compound_Path_5" data-name="&lt;Compound Path&gt;" class="cls-2" d="M16.67,54.6A6.39,6.39,0,1,1,23.06,61,6.39,6.39,0,0,1,16.67,54.6Z"/></g><g id="_Group_10" data-name="&lt;Group&gt;"><path id="_Compound_Path_6" data-name="&lt;Compound Path&gt;" class="cls-2" d="M12.51,69a6.39,6.39,0,1,1,6.39,6.39A6.39,6.39,0,0,1,12.51,69Zm1.94,0a4.45,4.45,0,1,0,4.45-4.45A4.45,4.45,0,0,0,14.45,69Z"/></g><g id="_Group_11" data-name="&lt;Group&gt;"><rect id="_Path_4" data-name="&lt;Path&gt;" class="cls-2" x="53.89" y="43.48" width="5.4" height="1.94"/><rect id="_Path_5" data-name="&lt;Path&gt;" class="cls-2" x="31.99" y="39.61" width="5.19" height="1.94"/><polygon id="_Path_6" data-name="&lt;Path&gt;" class="cls-2" points="45.73 45.42 45.73 41.55 41.88 41.55 41.88 39.61 47.67 39.61 47.67 43.48 49.2 43.48 49.2 45.42 45.73 45.42"/><rect id="_Path_7" data-name="&lt;Path&gt;" class="cls-2" x="53.89" y="30.89" width="7.74" height="1.94"/><rect id="_Path_8" data-name="&lt;Path&gt;" class="cls-2" x="42.76" y="30.89" width="6.44" height="1.94"/><polygon id="_Path_9" data-name="&lt;Path&gt;" class="cls-2" points="26.09 28.27 26.7 26.43 38.07 30.25 38.07 32.3 26.09 28.27"/><polygon id="_Path_10" data-name="&lt;Path&gt;" class="cls-2" points="40.83 61.91 46.85 61.91 46.85 63.85 42.77 63.85 42.77 65.31 40.83 65.31 40.83 61.91"/><polygon id="_Path_11" data-name="&lt;Path&gt;" class="cls-2" points="23.8 67.48 39.31 66.23 39.31 68.17 23.95 69.41 23.8 67.48"/><rect id="_Path_12" data-name="&lt;Path&gt;" class="cls-2" x="51.54" y="61.91" width="5.49" height="1.94"/></g></g><circle id="_Path_13" data-name="&lt;Path&gt;" class="cls-7" cx="16.07" cy="11.39" r="4.45"/><circle id="_Path_14" data-name="&lt;Path&gt;" class="cls-7" cx="21.77" cy="25.93" r="4.45"/><circle id="_Path_15" data-name="&lt;Path&gt;" class="cls-7" cx="27.38" cy="40.58" r="4.45"/><circle id="_Path_16" data-name="&lt;Path&gt;" class="cls-7" cx="23.06" cy="54.6" r="4.45"/><circle id="_Path_17" data-name="&lt;Path&gt;" class="cls-6" cx="18.9" cy="68.96" r="4.45"/></g></g></g></svg>