<svg xmlns="http://www.w3.org/2000/svg" viewBox="0 0 145.55 37.95"><defs><style>.cls-1{fill:#fff;}.cls-2{fill:#e75f2e;}.cls-3{fill:#4d4d4f;}</style></defs><title>zuccotech-text-outline-boldsvg</title><g id="Layer_2" data-name="Layer 2"><g id="Layer_1-2" data-name="Layer 1"><g id="_Group_" data-name="&lt;Group&gt;"><polygon class="cls-1" points="0 37.95 0 29.65 5.49 14.2 0.61 14.2 0.61 0 23.08 0 23.08 8.49 17.62 23.75 23.11 23.75 23.11 37.95 0 37.95"/><path class="cls-1" d="M22.72,38A7.42,7.42,0,0,1,15,30.19V0H39.22V30.19A7.43,7.43,0,0,1,31.44,38Z"/><path class="cls-1" d="M39.7,38A7.39,7.39,0,0,1,32,30.19V7.78A7.4,7.4,0,0,1,39.7,0h8.56A7.43,7.43,0,0,1,56,7.78V30.19A7.42,7.42,0,0,1,48.26,38Z"/><path class="cls-1" d="M56.44,38a7.39,7.39,0,0,1-7.69-7.76V7.78A7.4,7.4,0,0,1,56.44,0H65a7.43,7.43,0,0,1,7.76,7.78V30.19A7.42,7.42,0,0,1,65,38Z"/><path class="cls-1" d="M73.17,38a7.39,7.39,0,0,1-7.69-7.76V7.78A7.4,7.4,0,0,1,73.17,0h8.91a7.42,7.42,0,0,1,7.74,7.78V30.19A7.42,7.42,0,0,1,82.08,38Z"/><polygon class="cls-1" points="85.94 37.95 85.94 12.66 81.66 12.66 81.66 0 103.12 0 103.12 12.66 98.88 12.66 98.88 37.95 85.94 37.95"/><polygon class="cls-1" points="95.48 37.95 95.48 0 114.89 0 114.89 12.66 114.31 12.66 114.31 25.09 108.42 25.09 108.42 25.3 115 25.3 115 37.95 95.48 37.95"/><path class="cls-1" d="M115.5,38a7.11,7.11,0,0,1-7.2-7.2V7.2A7.11,7.11,0,0,1,115.5,0h7.07a7.26,7.26,0,0,1,5.06,2A7.17,7.17,0,0,1,129.8,7.2V30.76a7.13,7.13,0,0,1-2.16,5.17,7.24,7.24,0,0,1-5.07,2Z"/><rect class="cls-1" x="123.56" width="21.99" height="37.95"/><g id="_Group_2" data-name="&lt;Group&gt;"><polygon class="cls-2" points="5.09 32.95 5.09 30.51 12.67 9.2 5.71 9.2 5.71 5 18.17 5 18.17 7.62 10.61 28.75 18.21 28.75 18.21 32.95 5.09 32.95"/></g><g id="_Group_3" data-name="&lt;Group&gt;"><path class="cls-2" d="M22.81,33a2.46,2.46,0,0,1-2.74-2.76V5h4.6V28.93h5V5h4.61V30.19A2.47,2.47,0,0,1,31.53,33Z"/></g><g id="_Group_4" data-name="&lt;Group&gt;"><path class="cls-2" d="M39.8,33a2.44,2.44,0,0,1-2.69-2.76V7.78A2.44,2.44,0,0,1,39.8,5h8.56a2.47,2.47,0,0,1,2.76,2.78v6.67H46.53V9H41.71v19.9h4.81V23.16h4.59v7A2.47,2.47,0,0,1,48.36,33Z"/></g><g id="_Group_5" data-name="&lt;Group&gt;"><path class="cls-2" d="M56.53,33a2.44,2.44,0,0,1-2.69-2.76V7.78A2.44,2.44,0,0,1,56.53,5h8.56a2.47,2.47,0,0,1,2.76,2.78v6.67H63.26V9H58.45v19.9h4.82V23.16h4.59v7A2.47,2.47,0,0,1,65.09,33Z"/></g><g id="_Group_6" data-name="&lt;Group&gt;"><path class="cls-2" d="M73.26,33a2.44,2.44,0,0,1-2.69-2.76V7.78A2.44,2.44,0,0,1,73.26,5h8.91a2.47,2.47,0,0,1,2.74,2.78V30.19A2.46,2.46,0,0,1,82.18,33Zm7-4V9H75.18v19.9Z"/></g><g id="_Group_7" data-name="&lt;Group&gt;"><polygon class="cls-3" points="91.03 32.95 91.03 7.66 86.75 7.66 86.75 5 98.22 5 98.22 7.66 93.97 7.66 93.97 32.95 91.03 32.95"/></g><g id="_Group_8" data-name="&lt;Group&gt;"><polygon class="cls-3" points="100.57 32.95 100.57 5 109.98 5 109.98 7.66 103.51 7.66 103.51 17.4 109.41 17.4 109.41 20.09 103.51 20.09 103.51 30.3 110.09 30.3 110.09 32.95 100.57 32.95"/></g><g id="_Group_9" data-name="&lt;Group&gt;"><path class="cls-3" d="M115.59,33a2.11,2.11,0,0,1-2.2-2.2V7.2a2.11,2.11,0,0,1,2.2-2.2h7.07a2.22,2.22,0,0,1,1.59.61,2.12,2.12,0,0,1,.64,1.58v6.63h-3V7.66h-5.6V30.29h5.6V23.54h3v7.21a2.11,2.11,0,0,1-.64,1.58,2.21,2.21,0,0,1-1.59.62Z"/></g><g id="_Group_10" data-name="&lt;Group&gt;"><polygon class="cls-3" points="137.71 32.95 137.71 19.76 131.6 19.76 131.6 32.95 128.66 32.95 128.66 5 131.6 5 131.6 17.07 137.71 17.07 137.71 5 140.65 5 140.65 32.95 137.71 32.95"/></g></g></g></g></svg>