<svg xmlns="http://www.w3.org/2000/svg" viewBox="0 0 166.5 152.5"><defs><style>.cls-1{fill:#fff;}.cls-2{fill:#e75f2e;}.cls-3{fill:#454b54;}.cls-4{fill:#444b54;}</style></defs><title>Asset 1svg</title><g id="Layer_2" data-name="Layer 2"><g id="Layer_1-2" data-name="Layer 1"><path class="cls-1" d="M88.23,88.17A49.9,49.9,0,0,0,17.68,17.58l0,0A49.9,49.9,0,0,0,88.21,88.19Z"/><path class="cls-2" d="M99.3,34.8H96.7l-1.3-1.4-.3-2.3-1.3.8-.7,2.8-1.9-2.1-.1-1.9-1.9-1.6-.7-.7H86.3l.7,1.9,2.6,1.5.5.5-.6.3v1.5l-1.3.5-1.1-.2-.7-1,1.8.1.6-.6-3.9-2.6-.3-1.1L83,30.6l-1.6-.3L79,33.5l-.5,1.2-1.6.1H74.6l-1.4-.6-.4-2.8.5-1.3,2.4-.5,2.6.5.3-1.4-1.1-.3.4-2.2,2.6-.4,1.8-2.6,1.9-.3,1.7.2h.6l-.3-2.4-2,.8-.7-1.8-1.2-.2-.5-1.1,1-1.1,2.3-.9.6-1.1A49.81,49.81,0,0,0,52.8,2.9h-.1a49.42,49.42,0,0,0-29.3,9.6h2.5l1.1.6,2.1.5.1-.2.7-.7-.2-.8H27l2.9-2.2h2.9l1.3,1.8,2.2.1,1.3-1.3,1,.5-1.8,1.8H34.4a9.85,9.85,0,0,1,.2,1.7l3.1-.1.3-.8,2.1-.1.3-1.2-1.3-.2.4-1.1,1-.3,3.3.2L42,12.4l.3,1.3,1.9.3-.1-2.3,1.8-1,3.2-.4,3.7,1.6,1,.4v1.8l1.5.4-.8,1.4H52.4l-.6,1.6L47,16.4l3.8-2-1.5-1.2-3.3.4-.2.2h0l-.1.1-.9,1-1.6.1.1.8.5.2v.3l-1.3.2-.1.7-1.2.1L41,15.8l-2.2.7-4.4,2.6.5,1.8,1.2.8,2.5.3v2.9l1.1-.2,1.1-2.2,2.6-.8V18.3l1.5-1.1,3.6.8-.3,2.2h1l2.6-1.3.1,2.9.9.5,1,.6v1.9l-1,.3v1.2l1.4.7v1.2l-.6.1h0l-.8-.3-2-.6-.1-.9h0l.8-.6v-.8l-.8-.2-.2.7-1.6.3-.1-.1v.1l-.5.1-.5-.9-.5-.2H46.2l-.5.4v.9l.9.3.9.1-.2.1-.8.9-.4-.5-.8-.2L43.1,29l.3.2L40.1,31,37,34.2l-.2,1.4-3.1,2-1.5,1.5.2,3.1-2.1-1V39.4H24.4l-3,1.5-1.3,2.4-.5,1.9.9,1.9,2.4.3,3.8-2.6.3,1.3-1.2,2.5,2.9.5.3,4.5,4,.7,2.5-2.9,3.1.6,1.1,1.5,2.9-.2.1-.9,1.6.8,1.8,2.9h3.2l1.2,2,.2,2.5,2.2.9,1.2.5h4.4l1.3,2.1,1.9.6-.4,1.7-2.1,2.7-.6,6-1.9,1.5-2.9.1-1,1.7h0l.7,3.1-.7.9-2.4,3.1-1,1.8-3,1.4-2,.3-.1.8,1.4.4-.2.9-1.2,1.2.7.9h1.5l-.1,1.1L46,95.4l-.1.9,2.2,1.8-.3,1-3-.1-3-2.6-2.3-4.1.3-3.9-1.7-2.3.7-3.9-1-.3V73.3s-2.9-2.2-3.1-2.2a15.46,15.46,0,0,1-1.5-.4l-.3-1.6-3.8-4.7.4-1.7.1-2.8,2.6-1.8L31.8,55l-3.6-.1-3-3.4-2.1-.6-1.4-.3.2-1.2-1.7-.2v.7l-4.4-1.1L14,46.1l.7-1.3-2.8-4-.5-2.9H10.3l.4,2.9,1.9,2.9-.2,1.2-1.6-.2-2-3.4v-4l-2.1-1V33.5a49.05,49.05,0,0,0-4,19.6,50,50,0,0,0,49.9,50h.1A49.41,49.41,0,0,0,91.3,84.6H89.8V81.3l-1.9-2.6v-4l-1.5-1.5-.1-1.7L88.1,68l-3.5-6.2.4-4.2-3.2-.3-1-1.3H78.7l-1.1,1H73.8l-.1.3H71.6l-4.7-5.4V47.7l.8-.3.3-1.6H66.9l-.5-1.7,5.5-4V37.3l2.7-1.5,1.1.1h2.2l1.7-.9,5.6-.4v2.9l4.4,1.1.9.6h.8V37.6l2.6-.2,2.4,1.8h4l.3-.3C100.2,37.5,99.8,36.1,99.3,34.8ZM75.7,20.6l.5-.7,1.6-.3.4,2,.9,1.4.6.7,1.1.4-1,1.2-2,.1H76.3l.2-1.7,1.2-.3-.1-.8-1.1-.7-.8-.5ZM73,23.7l1-1.6,1.3-.3,1,.4-.1,1.1-2.1,1.5H72.9V23.7Z"/><path class="cls-1" d="M17.7,88.2a50,50,0,0,0,42.9,14.1A50,50,0,0,1,32.9,17.6a49.17,49.17,0,0,1,27.6-14A49.84,49.84,0,0,0,17.7,88.2Z"/><path class="cls-3" d="M52.9,105.8a52.9,52.9,0,1,1,52.9-52.9A53,53,0,0,1,52.9,105.8ZM52.9,6A46.9,46.9,0,1,0,99.8,52.9,47,47,0,0,0,52.9,6Z"/><path class="cls-1" d="M76,152.5a6.45,6.45,0,0,1-5.5-3h-5a6.52,6.52,0,0,1-12-3.49V111.76a14.67,14.67,0,0,1-6-11.76V78A16.52,16.52,0,0,1,64,61.5H80a6.51,6.51,0,0,1,4.05,1.38A16.48,16.48,0,0,1,97.8,55.5H115c6.17,0,10.91,3,13.69,8.7A6.45,6.45,0,0,1,134,61.5h16A16.52,16.52,0,0,1,166.5,78v24a12.52,12.52,0,0,1-6,10.67V145.8a6.38,6.38,0,0,1-6.5,6.4,6.49,6.49,0,0,1-5.36-2.82l-.33,0c-1.21,0-2.82.06-4.79.07a6.44,6.44,0,0,1-5.52,3Zm12.5-13v-8.78a6.38,6.38,0,0,1-1,.78v8Zm37-26.52a6.38,6.38,0,0,1,1-.78V110a11.67,11.67,0,0,1-1-.62Z"/><path class="cls-1" d="M150,64.5H134a3.46,3.46,0,0,0-3.5,3.5s0,.07,0,.1a10.56,10.56,0,0,0-3,1.66C125.66,62.39,121.34,58.5,115,58.5H97.8A13.54,13.54,0,0,0,84.73,68.64a10.41,10.41,0,0,0-1.24-.54s0-.07,0-.1A3.46,3.46,0,0,0,80,64.5H64A13.52,13.52,0,0,0,50.5,78v22a11.53,11.53,0,0,0,6,10.1V146a3.5,3.5,0,0,0,7,0h0a6.45,6.45,0,0,0,2.5.51h6.53a3.46,3.46,0,0,0,3.47,3h62a3.45,3.45,0,0,0,3.46-3c2.53,0,5,0,6.75-.07a6.22,6.22,0,0,0,2.29-.52,3.46,3.46,0,0,0,3.5,3.32,3.41,3.41,0,0,0,3.5-3.4v-35a9.64,9.64,0,0,0,6-8.84V78A13.52,13.52,0,0,0,150,64.5Zm-58.5,78H84a6.44,6.44,0,0,0,.51-2.5V129.47a3.46,3.46,0,0,0,3-3.47V112a3.46,3.46,0,0,0-3-3.47l6,0v-6h1Zm38-28.27a3.46,3.46,0,0,0-3,3.47v24.8h-4V104.85a9.13,9.13,0,0,0,1.93-1,8.66,8.66,0,0,0,5.07,4.26Z"/><path class="cls-1" d="M142,64.5A16.5,16.5,0,1,1,158.5,48,16.52,16.52,0,0,1,142,64.5Z"/><path class="cls-1" d="M142,61.5A13.5,13.5,0,1,0,128.5,48,13.52,13.52,0,0,0,142,61.5Z"/><path class="cls-1" d="M72,64.5A16.5,16.5,0,1,1,88.5,48,16.52,16.52,0,0,1,72,64.5Z"/><path class="cls-1" d="M72,61.5A13.5,13.5,0,1,0,58.5,48,13.52,13.52,0,0,0,72,61.5Z"/><path class="cls-1" d="M107,58.5A16.5,16.5,0,1,1,123.5,42,16.52,16.52,0,0,1,107,58.5Z"/><path class="cls-1" d="M107,55.5A13.5,13.5,0,1,0,93.5,42,13.52,13.52,0,0,0,107,55.5Z"/><path class="cls-1" d="M125,72a10,10,0,0,0-10-10H97.8a10,10,0,0,0-9.9,8.8L84,102H95v44h24V102h0a6,6,0,0,0,6-6Z"/><path class="cls-1" d="M80,68H64A10,10,0,0,0,54,78v22a8,8,0,0,0,6,7.7V140a6,6,0,0,0,6,6H78a6,6,0,0,0,6-6V108h6V78A10,10,0,0,0,80,68ZM72,38A10,10,0,1,0,82,48,10,10,0,0,0,72,38Zm78,30H134a10,10,0,0,0-10,10v22a8,8,0,0,0,6,7.7v32a6,6,0,0,0,5.8,6.2c3.4.1,9,.1,12.4,0a6.16,6.16,0,0,0,5.8-6.2V108h0a6,6,0,0,0,6-6V78A10,10,0,0,0,150,68Zm-8-30a10,10,0,1,0,10,10A10,10,0,0,0,142,38Z"/><path class="cls-2" d="M60,149a3,3,0,0,1-3-3V109.8a11,11,0,0,1-6-9.8V78A13,13,0,0,1,64,65H80a3,3,0,0,1,0,6H64a7,7,0,0,0-7,7v22a4.84,4.84,0,0,0,3.7,4.8,3,3,0,0,1,2.3,2.9V146A3,3,0,0,1,60,149ZM72,61A13,13,0,1,1,85,48,13,13,0,0,1,72,61Zm0-20a7,7,0,1,0,7,7A7,7,0,0,0,72,41Zm58,108a3,3,0,0,1-3-3V117.7a3,3,0,0,1,6,0V146A3,3,0,0,1,130,149Zm24-.3a3,3,0,0,1-3-3V108a3,3,0,0,1,3-3,3,3,0,0,0,3-3V78a7,7,0,0,0-7-7H134a3,3,0,0,1,0-6h16a13,13,0,0,1,13,13v24a9.1,9.1,0,0,1-6,8.5v35.3A2.93,2.93,0,0,1,154,148.7ZM142,61a13,13,0,1,1,13-13A13,13,0,0,1,142,61Zm0-20a7,7,0,1,0,7,7A7,7,0,0,0,142,41Z"/><path class="cls-4" d="M84,129a3,3,0,0,1-3-3V112a3,3,0,0,1,6,0v14A3,3,0,0,1,84,129Z"/><path class="cls-1" d="M107,32a10,10,0,1,0,10,10A10,10,0,0,0,107,32Z"/><path class="cls-4" d="M107,55a13,13,0,1,1,13-13A13,13,0,0,1,107,55Zm0-20a7,7,0,1,0,7,7A7,7,0,0,0,107,35Zm31,108H122V104.5a9,9,0,0,0,6-8.5V78c0-4.5-.9-19-13-19H97.8A13,13,0,0,0,84.9,70.4L81,101.6a3,3,0,1,0,5.9.7l3.9-31.2A6.92,6.92,0,0,1,97.7,65H115c6.1,0,7,8.1,7,13V96a3,3,0,0,1-3,3,3,3,0,0,0-3,3v41h-6V108a3,3,0,0,0-6,0v35H98V102a3,3,0,1,0-6,0v41H76a3,3,0,0,0,0,6h62a3,3,0,0,0,0-6Z"/></g></g></svg>