<svg xmlns="http://www.w3.org/2000/svg" viewBox="0 0 116.1 97.7"><defs><style>.cls-1{fill:#fff;}.cls-2{fill:#dedfe6;}.cls-3{fill:#a8b2c6;}.cls-4{fill:#f47a53;}.cls-5{fill:#464c55;}</style></defs><title>Asset 1svg</title><g id="Layer_2" data-name="Layer 2"><g id="Layer_1-2" data-name="Layer 1"><path class="cls-1" d="M103.8,94.7H12.2A9.18,9.18,0,0,1,3,85.5V12.2A9.18,9.18,0,0,1,12.2,3h91.7a9.18,9.18,0,0,1,9.2,9.2V85.5A9.33,9.33,0,0,1,103.8,94.7Z"/><path class="cls-2" d="M33.7,95.4a3,3,0,0,1-3-3V38.7a3,3,0,0,1,6,0V92.5A2.93,2.93,0,0,1,33.7,95.4Z"/><path class="cls-3" d="M113,21.4H3V12.2A9.18,9.18,0,0,1,12.2,3h91.7a9.18,9.18,0,0,1,9.2,9.2l-.1,9.2Z"/><path class="cls-2" d="M51.8,35.2H96.2a3,3,0,0,1,3,3V50.5a3,3,0,0,1-3,3H51.8a3,3,0,0,1-3-3V38.2A3,3,0,0,1,51.8,35.2Z"/><path class="cls-4" d="M51.8,62.7H64.1a3,3,0,0,1,3,3V78a3,3,0,0,1-3,3H51.8a3,3,0,0,1-3-3V65.7A3,3,0,0,1,51.8,62.7Z"/><path class="cls-5" d="M103.9,0H12.2A12.25,12.25,0,0,0,0,12.2V85.5A12.25,12.25,0,0,0,12.2,97.7h91.6a12.33,12.33,0,0,0,12.3-12.2V12.2A12.25,12.25,0,0,0,103.9,0ZM6,12.3a6.23,6.23,0,0,1,6.2-6.2V6h91.6a6.23,6.23,0,0,1,6.2,6.2v6.2H6Zm97.9,79.5H12.2A6.23,6.23,0,0,1,6,85.6V24.4H110.1V85.6A6.23,6.23,0,0,1,103.9,91.8Z"/><path class="cls-1" d="M14.5,15.7A3.5,3.5,0,1,1,18,12.2,3.61,3.61,0,0,1,14.5,15.7Zm9.1,0a3.5,3.5,0,1,1,3.5-3.5A3.54,3.54,0,0,1,23.6,15.7Z"/><path class="cls-1" d="M32.8,15.7a3.5,3.5,0,1,1,3.5-3.5A3.61,3.61,0,0,1,32.8,15.7Z"/><path class="cls-2" d="M95.2,68.4H76.9a3,3,0,0,1,0-6H95.2a3,3,0,0,1,0,6Zm0,12.8H76.9a3,3,0,0,1,0-6H95.2a3,3,0,1,1,0,6Z"/></g></g></svg>